# Blender v2.73 (sub 0) OBJ File: 'Cube1.blend'
# www.blender.org
mtllib Cube1.mtl
o Cube1
v 2.289597 -0.069534 -5.066640
v 2.289597 -0.069534 -3.066640
v 0.289597 -0.069534 -3.066640
v 0.289597 -0.069534 -5.066640
v 2.289597 1.930466 -5.066639
v 2.289596 1.930466 -3.066639
v 0.289596 1.930466 -3.066640
v 0.289597 1.930466 -5.066640
vt 0.998999 0.001001
vt 0.667668 0.001001
vt 0.667668 0.332332
vt 0.332332 0.001001
vt 0.001001 0.001001
vt 0.001001 0.332332
vt 0.001001 0.334334
vt 0.001001 0.665666
vt 0.332332 0.665666
vt 0.334334 0.001001
vt 0.334334 0.332332
vt 0.665666 0.332332
vt 0.665666 0.334334
vt 0.334334 0.334334
vt 0.334334 0.665666
vt 0.001001 0.667668
vt 0.001001 0.998999
vt 0.332332 0.998999
vt 0.998999 0.332332
vt 0.332332 0.332332
vt 0.332332 0.334334
vt 0.665666 0.001001
vt 0.665666 0.665666
vt 0.332332 0.667668
vn 0.000000 -1.000000 0.000000
vn 0.000000 1.000000 -0.000000
vn 1.000000 0.000000 0.000000
vn -0.000000 0.000000 1.000000
vn -1.000000 -0.000000 -0.000000
vn 0.000000 0.000000 -1.000000
usemtl Cube1
s off
f 1/1/1 2/2/1 3/3/1
f 5/4/2 8/5/2 7/6/2
f 5/7/3 6/8/3 2/9/3
f 6/10/4 7/11/4 3/12/4
f 3/13/5 7/14/5 8/15/5
f 1/16/6 4/17/6 8/18/6
f 4/19/1 1/1/1 3/3/1
f 6/20/2 5/4/2 7/6/2
f 1/21/3 5/7/3 2/9/3
f 2/22/4 6/10/4 3/12/4
f 4/23/5 3/13/5 8/15/5
f 5/24/6 1/16/6 8/18/6
