# Blender v2.73 (sub 0) OBJ File: 'Turret1.blend'
# www.blender.org
mtllib Turret1.mtl
o TurrentTop_Cylinder
v -0.379167 2.066308 -0.922581
v -0.379167 5.066308 -0.922581
v 0.386199 2.066308 -0.923651
v 0.386199 5.066308 -0.923651
v 0.928151 2.066308 -0.383212
v 0.928151 5.066308 -0.383212
v 0.929221 2.066308 0.382154
v 0.929221 5.066308 0.382154
v 0.388782 2.066308 0.924106
v 0.388782 5.066308 0.924106
v -0.376584 2.066308 0.925176
v -0.376584 5.066308 0.925176
v -0.918536 2.066308 0.384737
v -0.918536 5.066308 0.384737
v -0.919606 2.066308 -0.380628
v -0.919606 5.066308 -0.380628
v -0.839937 2.266309 -2.030593
v 0.843869 2.266309 -2.032947
v 2.036164 2.266309 -0.843981
v 2.038518 2.266309 0.839824
v 0.849552 2.266309 2.032119
v -0.834254 2.266309 2.034473
v -2.026548 2.266309 0.845507
v -2.028903 2.266309 -0.838298
v -0.955129 4.706308 -2.307596
v 0.958286 4.706308 -2.310271
v 2.313167 4.706308 -0.959174
v 2.315842 4.706308 0.954241
v 0.964744 4.706308 2.309122
v -0.948671 4.706308 2.311796
v -2.303551 4.706308 0.960699
v -2.306226 4.706308 -0.952716
v 1.110843 4.176824 -2.680037
v 2.682504 4.176824 -1.112764
v 2.685607 4.176824 1.106798
v 1.118334 4.176824 2.678459
v -1.101228 4.176824 2.681562
v -2.672889 4.176824 1.114289
v -2.675992 4.176824 -1.105272
v -1.108719 4.176824 -2.676934
v 1.074611 3.221566 -2.592217
v 2.594787 3.221566 -1.076286
v 2.597788 3.221566 1.070566
v 1.081856 3.221566 2.590742
v -1.064996 3.221566 2.593743
v -2.585171 3.221566 1.077812
v -2.588173 3.221566 -1.069040
v -1.072242 3.221566 -2.589216
v 0.555983 3.938009 -2.657319
v -0.553798 3.938009 -2.655767
v 0.537867 3.460381 -2.613409
v -0.535559 3.460381 -2.611908
v 0.550415 4.237209 -6.598722
v -0.559366 4.236939 -6.597195
v 0.532299 3.759212 -6.638420
v -0.541127 3.758951 -6.636941
vt 0.000000 0.354562
vt 0.108563 0.298827
vt 0.151020 0.351562
vt 0.106142 0.486399
vt 0.211063 0.351564
vt 0.253520 0.298833
vt 0.362393 0.354576
vt 0.253520 0.224256
vt 0.362393 0.168136
vt 0.211063 0.171522
vt 0.256250 0.036298
vt 0.151020 0.171519
vt 0.106142 0.036293
vt 0.108563 0.224251
vt 0.000000 0.168122
vt 0.478703 0.235339
vt 0.478703 0.160761
vt 0.581201 0.108027
vt 0.617109 0.396100
vt 0.485016 0.396100
vt 0.521159 0.288073
vt 0.391612 0.280085
vt 0.623658 0.235339
vt 0.710513 0.280085
vt 0.710513 0.116015
vt 0.617109 0.000000
vt 0.485016 0.000000
vt 0.391612 0.116015
vt 0.521159 0.108027
vt 0.391612 0.750487
vt 0.391612 0.564044
vt 0.425878 0.549174
vt 0.603443 0.882222
vt 0.624302 0.750387
vt 0.670728 0.765302
vt 0.094362 0.000000
vt 0.807718 0.750387
vt 0.807718 0.563944
vt 0.843571 0.549028
vt 0.391612 0.152938
vt 0.211825 0.654349
vt 0.211825 0.840792
vt 0.177556 0.855752
vt 0.624302 0.563944
vt 0.603443 0.432109
vt 0.646532 0.396100
vt 0.670728 0.549028
vt 0.742855 0.552571
vt 0.150875 0.486405
vt 0.177556 0.639479
vt 0.102903 0.643032
vt 0.102903 0.852221
vt 0.865020 0.918231
vt 0.843571 0.765302
vt 0.918566 0.761760
vt 0.918566 0.552571
vt 0.865020 0.396100
vt 0.452569 0.396100
vt 0.526347 0.404668
vt 0.425878 0.765448
vt 0.500530 0.552728
vt 0.500530 0.761917
vt 0.583195 0.575256
vt 0.603443 0.459130
vt 0.526347 0.909695
vt 0.583195 0.739325
vt 1.000000 0.575130
vt 0.020241 0.829630
vt 0.077097 1.000000
vt 0.000000 0.549435
vt 0.077096 0.494973
vt 0.742855 0.761760
vt 0.807718 0.575130
vt 0.285504 0.977039
vt 0.249206 0.978810
vt 0.249206 0.870673
vt 0.211825 0.978810
vt 0.211826 0.870673
vt 0.249206 0.872445
vt 0.298890 0.486406
vt 0.383101 0.486405
vt 0.383101 0.878811
vt 0.748060 0.007585
vt 0.784603 0.000000
vt 0.784603 0.393231
vt 0.211825 0.486406
vt 0.298889 0.870670
vt 0.711016 0.385650
vt 0.710513 0.000541
vt 0.747560 0.000000
vt 0.256250 0.486405
vt 0.581201 0.288073
vt 0.623658 0.160761
vt 0.646532 0.918231
vt 0.268487 0.000007
vt 0.391612 0.369208
vt 0.939312 0.909679
vt 0.939312 0.404652
vt 0.603443 0.855229
vt 1.000000 0.739200
vt 0.000000 0.945534
vt 0.020241 0.665560
vt 0.807718 0.739200
vt 0.285504 0.872445
vt 0.249206 0.977039
vt 0.298889 0.878811
vt 0.747560 0.392694
vt 0.747560 0.393232
vn -0.000400 0.967900 -0.251400
vn 0.177500 0.967900 -0.178000
vn 0.251400 0.967900 -0.000400
vn 0.178000 0.967900 0.177500
vn 0.000400 0.967900 0.251400
vn -0.177500 0.967900 0.178000
vn 0.000000 1.000000 0.000000
vn -0.178000 0.967900 -0.177500
vn -0.251400 0.967900 0.000400
vn 0.000000 -1.000000 -0.000000
vn -0.177500 -0.984100 0.000200
vn -0.125700 -0.984100 -0.125400
vn -0.125400 -0.984100 0.125700
vn 0.000200 -0.984100 0.177500
vn 0.125700 -0.984100 0.125400
vn 0.177500 -0.984100 -0.000200
vn 0.125400 -0.984100 -0.125700
vn -0.000200 -0.984100 -0.177500
vn -0.820000 0.572300 0.001100
vn -0.580700 0.572300 -0.579000
vn -0.579000 0.572300 0.580700
vn 0.001100 0.572300 0.820000
vn 0.580700 0.572300 0.579000
vn 0.820000 0.572300 -0.001100
vn 0.579000 0.572300 -0.580700
vn -0.001100 0.572300 -0.820000
vn -0.001400 -0.091500 -0.995800
vn 0.703200 -0.091500 -0.705100
vn 0.995800 -0.091500 -0.001400
vn 0.705100 -0.091500 0.703200
vn 0.001400 -0.091500 0.995800
vn -0.703200 -0.091500 0.705100
vn -0.705100 -0.091500 -0.703200
vn -0.995800 -0.091500 0.001400
vn -0.863100 -0.505000 0.001200
vn -0.611200 -0.505000 -0.609500
vn -0.609500 -0.505000 0.611200
vn 0.001200 -0.505000 0.863100
vn 0.611200 -0.505000 0.609500
vn 0.863100 -0.505000 -0.001200
vn 0.609500 -0.505000 -0.611200
vn -0.001200 -0.505000 -0.863100
vn 0.001400 0.091500 0.995800
vn -0.001400 0.082800 -0.996600
vn -0.000100 -0.997300 -0.074000
vn 0.999300 -0.038300 -0.004200
vn 0.000100 0.997100 0.075700
vn -0.999300 -0.038000 -0.001500
vn 0.000100 -0.997300 -0.074000
vn 0.999300 -0.037500 -0.004300
vn -0.000100 0.997100 0.075600
vn -0.999300 -0.038300 -0.001500
usemtl TurretTop
s off
f 25/1/1 2/2/1 4/3/1
f 26/4/2 4/3/2 6/5/2
f 6/5/3 8/6/3 28/7/3
f 8/6/4 10/8/4 29/9/4
f 10/8/5 12/10/5 30/11/5
f 12/10/6 14/12/6 31/13/6
f 4/3/7 16/14/7 12/10/7
f 16/14/8 2/2/8 25/1/8
f 14/12/9 16/14/9 32/15/9
f 1/16/10 3/17/10 7/18/10
f 23/19/11 24/20/11 15/21/11
f 24/20/12 17/22/12 1/16/12
f 11/23/13 22/24/13 23/19/13
f 21/25/14 22/24/14 11/23/14
f 7/18/15 20/26/15 21/25/15
f 19/27/16 20/26/16 7/18/16
f 18/28/17 19/27/17 5/29/17
f 17/22/18 18/28/18 3/17/18
f 31/30/19 32/31/19 39/32/19
f 32/33/20 25/34/20 40/35/20
f 30/11/21 31/13/21 38/36/21
f 29/37/22 30/38/22 37/39/22
f 28/7/23 29/9/23 36/40/23
f 27/41/24 28/42/24 35/43/24
f 26/44/25 27/45/25 34/46/25
f 25/34/26 26/44/26 33/47/26
f 40/35/27 33/47/27 41/48/27
f 33/49/28 34/50/28 42/51/28
f 34/50/29 35/43/29 43/52/29
f 35/53/30 36/54/30 44/55/30
f 36/54/31 37/39/31 45/56/31
f 45/56/32 37/39/32 38/57/32
f 39/32/33 40/58/33 48/59/33
f 38/60/34 39/32/34 47/61/34
f 46/62/35 47/61/35 24/63/35
f 47/61/36 48/59/36 17/64/36
f 45/65/37 46/62/37 23/66/37
f 44/55/38 45/56/38 22/67/38
f 20/68/39 43/52/39 44/69/39
f 42/51/40 43/52/40 20/68/40
f 18/70/41 41/71/41 42/51/41
f 48/72/42 41/48/42 18/73/42
f 51/74/43 49/75/43 50/76/43
f 54/77/44 53/78/44 55/79/44
f 51/80/45 52/81/45 56/82/45
f 49/83/46 51/84/46 55/85/46
f 50/86/47 49/80/47 53/87/47
f 50/88/48 54/89/48 56/90/48
f 26/4/1 25/1/1 4/3/1
f 27/91/2 26/4/2 6/5/2
f 27/91/3 6/5/3 28/7/3
f 28/7/4 8/6/4 29/9/4
f 29/9/5 10/8/5 30/11/5
f 30/11/6 12/10/6 31/13/6
f 8/6/7 6/5/7 4/3/7
f 12/10/7 10/8/7 8/6/7
f 16/14/7 14/12/7 12/10/7
f 4/3/7 2/2/7 16/14/7
f 12/10/7 8/6/7 4/3/7
f 32/15/8 16/14/8 25/1/8
f 31/13/9 14/12/9 32/15/9
f 13/92/10 15/21/10 1/16/10
f 9/93/10 11/23/10 13/92/10
f 1/16/10 7/18/10 9/93/10
f 7/18/10 3/17/10 5/29/10
f 9/93/10 13/92/10 1/16/10
f 13/92/11 23/19/11 15/21/11
f 15/21/12 24/20/12 1/16/12
f 13/92/13 11/23/13 23/19/13
f 9/93/14 21/25/14 11/23/14
f 9/93/15 7/18/15 21/25/15
f 5/29/16 19/27/16 7/18/16
f 3/17/17 18/28/17 5/29/17
f 1/16/18 17/22/18 3/17/18
f 38/60/19 31/30/19 39/32/19
f 39/94/20 32/33/20 40/35/20
f 37/95/21 30/11/21 38/36/21
f 36/54/22 29/37/22 37/39/22
f 35/96/23 28/7/23 36/40/23
f 34/50/24 27/41/24 35/43/24
f 33/47/25 26/44/25 34/46/25
f 40/35/26 25/34/26 33/47/26
f 48/72/27 40/35/27 41/48/27
f 41/71/28 33/49/28 42/51/28
f 42/51/29 34/50/29 43/52/29
f 43/97/30 35/53/30 44/55/30
f 44/55/31 36/54/31 45/56/31
f 46/98/32 45/56/32 38/57/32
f 47/61/33 39/32/33 48/59/33
f 46/62/34 38/60/34 47/61/34
f 23/66/35 46/62/35 24/63/35
f 24/63/36 47/61/36 17/64/36
f 22/99/37 45/65/37 23/66/37
f 21/100/38 44/55/38 22/67/38
f 21/101/39 20/68/39 44/69/39
f 19/102/40 42/51/40 20/68/40
f 19/102/41 18/70/41 42/51/41
f 17/103/42 48/72/42 18/73/42
f 52/104/43 51/74/43 50/76/43
f 56/105/44 54/77/44 55/79/44
f 55/106/49 51/80/49 56/82/49
f 53/107/50 49/83/50 55/85/50
f 54/78/51 50/86/51 53/87/51
f 52/108/52 50/88/52 56/90/52
o TurretBase_TurrentBase
v 2.300000 0.000000 -2.300000
v 2.300000 0.000000 2.300000
v -2.300000 0.000000 2.300000
v -2.299999 0.000000 -2.300001
v 1.000000 2.000000 -0.999999
v 0.999999 2.000000 1.000001
v -1.000000 2.000000 1.000000
v -1.000000 2.000000 -1.000000
v 0.997398 -0.004259 0.257086
v 0.988312 0.007031 0.294381
v 0.966413 -0.022482 0.965423
v 0.963881 -0.022014 1.003295
vt 1.000000 0.500000
vt 1.000000 1.000000
vt 0.000000 1.000000
vt 0.717391 0.358696
vt 0.282609 0.358696
vt 0.282609 0.141304
vt 0.717391 0.141304
vt 0.000000 0.000000
vt 0.000000 0.500000
vt 1.000000 0.000000
vn 0.000000 -1.000000 0.000000
vn 0.000000 1.000000 0.000000
vn 0.838400 0.545000 0.000000
vn -0.000000 0.545000 0.838400
vn -0.838400 0.545000 -0.000000
vn 0.000000 0.545000 -0.838400
usemtl TurretTop_TurretBase
s off
f 58/109/53 59/110/53 60/111/53
f 64/112/54 63/113/54 62/114/54
f 61/115/55 62/114/55 58/116/55
f 62/114/56 63/113/56 59/117/56
f 63/113/57 64/112/57 60/109/57
f 57/118/58 60/109/58 64/112/58
f 57/117/53 58/109/53 60/111/53
f 61/115/54 64/112/54 62/114/54
f 57/118/55 61/115/55 58/116/55
f 58/116/56 62/114/56 59/117/56
f 59/117/57 63/113/57 60/109/57
f 61/115/58 57/118/58 64/112/58
